<svg width="16" height="16" viewBox="0 0 16 16" fill="none" xmlns="http://www.w3.org/2000/svg">
<path d="M8.15174 1.28127C5.76893 1.27502 3.67205 2.50784 2.47361 4.37034C2.42049 4.45315 2.47986 4.56252 2.5783 4.56252H3.67674C3.75174 4.56252 3.82205 4.52971 3.86893 4.4719C3.9783 4.33909 4.09549 4.21096 4.21893 4.08909C4.7283 3.58127 5.32049 3.18127 5.97986 2.90315C6.66111 2.61565 7.38611 2.46877 8.13455 2.46877C8.88299 2.46877 9.60799 2.61409 10.2892 2.90315C10.9486 3.18127 11.5408 3.58127 12.0502 4.08909C12.5596 4.5969 12.958 5.18909 13.2377 5.8469C13.5267 6.52815 13.6721 7.25159 13.6721 8.00002C13.6721 8.74846 13.5252 9.4719 13.2377 10.1531C12.9596 10.811 12.5596 11.4031 12.0502 11.911C11.5408 12.4188 10.9486 12.8188 10.2892 13.0969C9.60745 13.3849 8.87466 13.5326 8.13455 13.5313C7.38611 13.5313 6.66111 13.3844 5.97986 13.0969C5.32178 12.8191 4.72378 12.4163 4.21893 11.911C4.09549 11.7875 3.97986 11.6594 3.86893 11.5281C3.82205 11.4703 3.75018 11.4375 3.67674 11.4375H2.5783C2.47986 11.4375 2.41893 11.5469 2.47361 11.6297C3.67049 13.4875 5.75799 14.7188 8.13455 14.7188C11.8252 14.7188 14.8221 11.7485 14.8596 8.06878C14.8971 4.32971 11.8955 1.29065 8.15174 1.28127ZM6.17236 9.75002V8.56252H1.26611C1.19736 8.56252 1.14111 8.50627 1.14111 8.43752V7.56252C1.14111 7.49377 1.19736 7.43752 1.26611 7.43752H6.17236V6.25002C6.17236 6.14534 6.29424 6.08596 6.37549 6.15159L8.59268 7.90159C8.60762 7.91328 8.6197 7.92822 8.62801 7.94527C8.63632 7.96233 8.64064 7.98105 8.64064 8.00002C8.64064 8.019 8.63632 8.03772 8.62801 8.05477C8.6197 8.07183 8.60762 8.08677 8.59268 8.09846L6.37549 9.84846C6.29424 9.91252 6.17236 9.85471 6.17236 9.75002Z" fill="white"/>
</svg>
