<svg width="140" height="140" viewBox="0 0 140 140" fill="none" xmlns="http://www.w3.org/2000/svg">
<circle cx="70" cy="70" r="70" fill="white"/>
<g clip-path="url(#clip0)">
<path d="M70.3928 104.492C95.0266 104.492 114.996 100.761 114.996 96.1579C114.996 91.555 95.0266 87.8237 70.3928 87.8237C45.7591 87.8237 25.7896 91.555 25.7896 96.1579C25.7896 100.761 45.7591 104.492 70.3928 104.492Z" fill="#F5F5F7" fill-opacity="0.8"/>
<path fill-rule="evenodd" clip-rule="evenodd" d="M106.075 71.6737L90.3348 52.302C89.5795 51.3901 88.4756 50.8382 87.3131 50.8382H53.471C52.3091 50.8382 51.2052 51.3901 50.4499 52.302L34.7104 71.6737V81.7941H106.076V71.6737H106.075Z" fill="#AEB8C2"/>
<path fill-rule="evenodd" clip-rule="evenodd" d="M48.0461 25.8355H92.7389C93.4368 25.8355 94.1062 26.1128 94.5997 26.6063C95.0932 27.0998 95.3705 27.7692 95.3705 28.4671V89.8776C95.3705 90.5756 95.0932 91.2449 94.5997 91.7384C94.1062 92.2319 93.4368 92.5092 92.7389 92.5092H48.0461C47.3482 92.5092 46.6788 92.2319 46.1853 91.7384C45.6918 91.2449 45.4146 90.5756 45.4146 89.8776V28.4671C45.4146 27.7692 45.6918 27.0998 46.1853 26.6063C46.6788 26.1128 47.3482 25.8355 48.0461 25.8355V25.8355Z" fill="#F5F5F7"/>
<path fill-rule="evenodd" clip-rule="evenodd" d="M53.8672 32.3835H86.9179C87.2668 32.3835 87.6015 32.5222 87.8483 32.7689C88.095 33.0157 88.2337 33.3504 88.2337 33.6993V50.1184C88.2337 50.4674 88.095 50.8021 87.8483 51.0488C87.6015 51.2956 87.2668 51.4342 86.9179 51.4342H53.8672C53.5182 51.4342 53.1836 51.2956 52.9368 51.0488C52.69 50.8021 52.5514 50.4674 52.5514 50.1184V33.6993C52.5514 33.3504 52.69 33.0157 52.9368 32.7689C53.1836 32.5222 53.5182 32.3835 53.8672 32.3835ZM54.0396 58.577H86.7455C87.1402 58.577 87.5187 58.7338 87.7978 59.0128C88.0769 59.2919 88.2337 59.6704 88.2337 60.0651C88.2337 60.4598 88.0769 60.8383 87.7978 61.1174C87.5187 61.3965 87.1402 61.5533 86.7455 61.5533H54.0396C53.6449 61.5533 53.2664 61.3965 52.9873 61.1174C52.7082 60.8383 52.5514 60.4598 52.5514 60.0651C52.5514 59.6704 52.7082 59.2919 52.9873 59.0128C53.2664 58.7338 53.6449 58.577 54.0396 58.577ZM54.0396 66.3158H86.7455C87.1403 66.3158 87.5189 66.4726 87.798 66.7518C88.0772 67.0309 88.234 67.4095 88.234 67.8043C88.234 68.199 88.0772 68.5776 87.798 68.8568C87.5189 69.1359 87.1403 69.2928 86.7455 69.2928H54.0396C53.6448 69.2928 53.2662 69.1359 52.987 68.8568C52.7079 68.5776 52.5511 68.199 52.5511 67.8043C52.5511 67.4095 52.7079 67.0309 52.987 66.7518C53.2662 66.4726 53.6448 66.3158 54.0396 66.3158ZM105.93 94.9355C105.42 96.9559 103.629 98.4618 101.499 98.4618H39.2863C37.156 98.4618 35.3652 96.9553 34.856 94.9355C34.7589 94.5505 34.7098 94.1549 34.71 93.7579V71.6743H52.0244C53.9369 71.6743 55.4784 73.2849 55.4784 75.2401V75.2664C55.4784 77.221 57.0376 78.7993 58.9501 78.7993H81.835C83.7475 78.7993 85.3067 77.2066 85.3067 75.2513V75.2434C85.3067 73.2881 86.8481 71.6737 88.7606 71.6737H106.075V93.7585C106.075 94.1645 106.024 94.5585 105.93 94.9355Z" fill="#DCE0E6"/>
<path fill-rule="evenodd" clip-rule="evenodd" d="M108.106 26.9026L103.613 28.6461C103.497 28.6909 103.372 28.7023 103.25 28.6789C103.128 28.6555 103.016 28.5982 102.925 28.5137C102.835 28.4292 102.77 28.3208 102.738 28.2011C102.707 28.0813 102.709 27.9551 102.746 27.8368L104.021 23.7533C102.317 21.8164 101.317 19.4546 101.317 16.9059C101.317 10.3303 107.974 5 116.186 5C124.396 5 131.053 10.3303 131.053 16.9059C131.053 23.4816 124.396 28.8118 116.185 28.8118C113.206 28.8118 110.433 28.1105 108.106 26.9026Z" fill="#AEB8C2"/>
<path d="M122.042 19.0559C123.077 19.0559 123.917 18.2268 123.917 17.204C123.917 16.1811 123.077 15.352 122.042 15.352C121.007 15.352 120.168 16.1811 120.168 17.204C120.168 18.2268 121.007 19.0559 122.042 19.0559Z" fill="white"/>
<path fill-rule="evenodd" clip-rule="evenodd" d="M112.203 18.8244H108.454L110.361 15.5836L112.203 18.8244ZM114.546 15.5836H117.825V18.8244H114.546V15.5836Z" fill="white"/>
<path d="M46.209 120.329V123.124H48.315V123.696H45.715V124.372H48.315V125.165H49.186V124.372H51.734V123.696H49.186V123.124H51.305V120.329H49.186V119.77H51.643V119.107H49.186V118.405H48.315V119.107H45.845V119.77H48.315V120.329H46.209ZM50.525 122.591H49.147V121.954H50.525V122.591ZM48.38 122.591H46.989V121.954H48.38V122.591ZM46.989 121.486V120.875H48.38V121.486H46.989ZM49.147 120.875H50.525V121.486H49.147V120.875ZM53.294 121.941H54.958V125.152H55.816V121.941H57.246V121.109H53.294L53.281 119.913C54.607 119.848 55.803 119.627 56.869 119.25L56.466 118.522C55.374 118.925 54.035 119.159 52.462 119.211V121.863C52.436 123.111 52.15 124.073 51.63 124.775L52.41 125.152C52.956 124.424 53.242 123.358 53.294 121.941ZM55.829 125.516H47.327V130.3H48.237V129.741H54.919V130.3H55.829V125.516ZM48.237 128.974V127.999H54.919V128.974H48.237ZM48.237 127.245V126.27H54.919V127.245H48.237ZM60.522 120.498H69.7V119.614H61.094C61.289 119.25 61.458 118.873 61.588 118.47L60.678 118.353C60.327 119.406 59.651 120.303 58.65 121.031L59.222 121.785C59.716 121.395 60.158 120.966 60.522 120.498ZM60.561 121.161V122.786H59.04V123.644H60.561V125.815H58.858V126.686H70.142V125.815H68.686V123.644H69.973V122.786H68.686V121.161H67.776V122.786H66.281V121.161H65.384V122.786H63.863V121.161H62.953V122.786H61.458V121.161H60.561ZM61.458 125.815V123.644H62.953V125.815H61.458ZM63.863 125.815V123.644H65.384V125.815H63.863ZM66.281 125.815V123.644H67.776V125.815H66.281ZM60.496 127.245C60.054 128.233 59.521 129.078 58.923 129.793L59.677 130.352C60.301 129.585 60.834 128.675 61.276 127.622L60.496 127.245ZM63.33 127.492L62.472 127.687C62.706 128.441 62.914 129.299 63.083 130.274L64.019 130.066C63.811 129.143 63.59 128.285 63.33 127.492ZM66.151 127.414L65.293 127.609C65.605 128.363 65.878 129.221 66.099 130.196L67.048 129.988C66.788 129.065 66.489 128.207 66.151 127.414ZM68.504 127.167L67.789 127.609C68.517 128.597 69.089 129.481 69.505 130.287L70.285 129.741C69.869 129.013 69.284 128.155 68.504 127.167ZM79.632 121.252H81.543C81.491 123.124 81.179 124.762 80.607 126.14C80.139 125.139 79.827 124.008 79.697 122.747L79.06 122.942C79.268 122.422 79.463 121.863 79.632 121.252ZM80.126 127.128C79.58 128.077 78.878 128.87 77.994 129.52C77.37 129.208 76.746 128.922 76.148 128.675C76.668 128.233 77.045 127.687 77.279 127.063H78.28V126.296H74.64C74.705 126.166 74.783 126.036 74.861 125.88H75.342V125.399H77.76V123.748L78.28 124.398C78.514 124.034 78.722 123.644 78.93 123.215C79.112 124.671 79.515 125.984 80.126 127.128ZM75.29 128.337C74.757 128.142 74.237 127.973 73.73 127.843C73.873 127.609 74.029 127.349 74.211 127.063H76.395C76.187 127.557 75.81 127.973 75.29 128.337ZM77.981 129.546L78.475 130.339C79.333 129.689 80.061 128.909 80.646 127.986C81.244 128.87 81.998 129.65 82.934 130.326L83.493 129.585C82.531 128.883 81.738 128.064 81.127 127.102C81.907 125.503 82.336 123.553 82.414 121.252H83.233V120.381H79.84C79.97 119.809 80.074 119.185 80.178 118.522L79.242 118.366C78.982 120.55 78.488 122.292 77.76 123.618V123.319H75.342V122.708H77.526V121.291H78.241V120.524H77.526V119.081H75.342V118.392H74.497V119.081H72.326V120.524H71.637V121.291H72.326V122.708H74.497V123.319H72.092V125.399H74.211C74.055 125.685 73.899 125.984 73.743 126.296H71.676V127.063H73.314C73.106 127.427 72.885 127.791 72.664 128.155C73.262 128.337 73.86 128.545 74.471 128.779C73.769 129.091 72.859 129.325 71.767 129.481L72.118 130.235C73.457 130.027 74.562 129.676 75.42 129.182C76.096 129.481 76.785 129.819 77.474 130.209L77.981 129.546ZM76.72 122.058H75.342V121.213H76.72V122.058ZM75.342 120.576V119.757H76.72V120.576H75.342ZM74.497 122.058H73.132V121.213H74.497V122.058ZM73.132 120.576V119.757H74.497V120.576H73.132ZM76.967 124.762H75.342V123.943H76.967V124.762ZM74.497 124.762H72.898V123.943H74.497V124.762ZM91.813 121.187V122.071L90.227 122.253L90.318 122.903L91.813 122.734V123.241C91.813 123.644 92.086 123.852 92.645 123.852H95.518V123.189H92.983C92.775 123.189 92.671 123.072 92.671 122.864V122.539L94.543 122.357L94.452 121.785L92.671 121.967V121.187H95.336C95.245 121.577 95.141 121.928 95.011 122.253L95.791 122.474C95.973 121.928 96.103 121.369 96.194 120.81V120.42H92.684V119.692H95.583V118.964H92.684V118.392H91.8V120.42H88.953V125.412C88.927 127.154 88.576 128.597 87.913 129.715L88.589 130.313C89.382 128.961 89.785 127.31 89.785 125.386V121.187H91.813ZM95.583 125.568C95.05 126.075 94.491 126.465 93.906 126.725C93.711 126.231 93.412 125.802 93.009 125.412C93.113 125.308 93.204 125.204 93.295 125.1H95.856V124.398H90.474V125.1H92.515C92.047 125.516 91.254 125.893 90.149 126.231L90.526 126.842C91.293 126.556 91.943 126.231 92.463 125.867C92.58 125.997 92.684 126.127 92.788 126.283C92.008 126.881 91.059 127.362 89.967 127.7L90.357 128.285C91.371 127.934 92.281 127.44 93.074 126.79C93.152 126.959 93.217 127.154 93.269 127.362C92.307 128.155 91.15 128.766 89.798 129.195L90.227 129.832C91.397 129.416 92.45 128.831 93.373 128.077C93.373 128.103 93.386 128.155 93.386 128.22C93.386 128.766 93.334 129.143 93.243 129.338C93.165 129.481 92.97 129.559 92.658 129.572H91.8L92.06 130.287H92.775C93.399 130.287 93.802 130.118 93.984 129.806C94.14 129.507 94.218 128.974 94.218 128.22C94.218 128.181 94.205 128.142 94.205 128.116C94.712 128.74 95.349 129.273 96.116 129.728L96.532 129C95.635 128.532 94.907 127.96 94.335 127.297C94.998 127.011 95.596 126.621 96.116 126.101L95.583 125.568ZM84.715 120.875V121.72H86.288V124.606C85.716 124.814 85.131 124.983 84.533 125.113L84.754 125.997C85.274 125.841 85.794 125.685 86.288 125.503V128.922C86.288 129.234 86.132 129.39 85.82 129.39C85.482 129.39 85.118 129.364 84.754 129.325L84.936 130.17H86.119C86.834 130.17 87.198 129.819 87.198 129.143V125.139C87.588 124.983 87.965 124.801 88.355 124.619V123.722C87.978 123.917 87.588 124.099 87.198 124.255V121.72H88.355V120.875H87.198V118.431H86.288V120.875H84.715Z" fill="black" fill-opacity="0.85"/>
</g>
<defs>
<clipPath id="clip0">
<rect width="121" height="130" fill="white" transform="translate(10 5)"/>
</clipPath>
</defs>
</svg>
