<svg width="24" height="24" viewBox="0 0 24 24" fill="none" xmlns="http://www.w3.org/2000/svg">
<path d="M16.7142 6.63784V5.35212C16.7142 5.23426 16.6178 5.13784 16.4999 5.13784H6.21418C6.09632 5.13784 5.9999 5.23426 5.9999 5.35212V6.63784C5.9999 6.75569 6.09632 6.85212 6.21418 6.85212H16.4999C16.6178 6.85212 16.7142 6.75569 16.7142 6.63784ZM6.21418 8.99498C6.09632 8.99498 5.9999 9.09141 5.9999 9.20926V10.495C5.9999 10.6128 6.09632 10.7093 6.21418 10.7093H11.1428C11.2606 10.7093 11.357 10.6128 11.357 10.495V9.20926C11.357 9.09141 11.2606 8.99498 11.1428 8.99498H6.21418ZM10.0713 21.1021H3.85704V2.24498H18.857V11.4593C18.857 11.5771 18.9535 11.6735 19.0713 11.6735H20.5713C20.6892 11.6735 20.7856 11.5771 20.7856 11.4593V1.17355C20.7856 0.699442 20.4026 0.316406 19.9285 0.316406H2.78561C2.3115 0.316406 1.92847 0.699442 1.92847 1.17355V22.1736C1.92847 22.6477 2.3115 23.0307 2.78561 23.0307H10.0713C10.1892 23.0307 10.2856 22.9343 10.2856 22.8164V21.3164C10.2856 21.1986 10.1892 21.1021 10.0713 21.1021ZM22.0097 22.4816L19.5106 19.9825C20.1079 19.1923 20.4642 18.2066 20.4642 17.1378C20.4642 14.5343 18.3535 12.4235 15.7499 12.4235C13.1463 12.4235 11.0356 14.5343 11.0356 17.1378C11.0356 19.7414 13.1463 21.8521 15.7499 21.8521C16.7088 21.8521 17.5981 21.5655 18.3428 21.0753L20.8794 23.6119C20.9222 23.6548 20.9758 23.6736 21.0294 23.6736C21.0829 23.6736 21.1392 23.6521 21.1794 23.6119L22.0097 22.7816C22.0295 22.7619 22.0452 22.7386 22.0559 22.7128C22.0666 22.6871 22.0721 22.6595 22.0721 22.6316C22.0721 22.6037 22.0666 22.5761 22.0559 22.5504C22.0452 22.5246 22.0295 22.5012 22.0097 22.4816ZM15.7499 20.1378C14.0919 20.1378 12.7499 18.7959 12.7499 17.1378C12.7499 15.4798 14.0919 14.1378 15.7499 14.1378C17.4079 14.1378 18.7499 15.4798 18.7499 17.1378C18.7499 18.7959 17.4079 20.1378 15.7499 20.1378Z" fill="#1890FF"/>
</svg>
