<svg width="24" height="24" viewBox="0 0 24 24" fill="none" xmlns="http://www.w3.org/2000/svg">
<path d="M16.7142 6.63808V5.35237C16.7142 5.23451 16.6178 5.13808 16.4999 5.13808H6.21418C6.09632 5.13808 5.9999 5.23451 5.9999 5.35237V6.63808C5.9999 6.75594 6.09632 6.85237 6.21418 6.85237H16.4999C16.6178 6.85237 16.7142 6.75594 16.7142 6.63808ZM6.21418 8.99522C6.09632 8.99522 5.9999 9.09165 5.9999 9.20951V10.4952C5.9999 10.6131 6.09632 10.7095 6.21418 10.7095H11.1428C11.2606 10.7095 11.357 10.6131 11.357 10.4952V9.20951C11.357 9.09165 11.2606 8.99522 11.1428 8.99522H6.21418ZM10.0713 21.1024H3.85704V2.24522H18.857V11.4595C18.857 11.5774 18.9535 11.6738 19.0713 11.6738H20.5713C20.6892 11.6738 20.7856 11.5774 20.7856 11.4595V1.17379C20.7856 0.699686 20.4026 0.31665 19.9285 0.31665H2.78561C2.3115 0.31665 1.92847 0.699686 1.92847 1.17379V22.1738C1.92847 22.6479 2.3115 23.0309 2.78561 23.0309H10.0713C10.1892 23.0309 10.2856 22.9345 10.2856 22.8167V21.3167C10.2856 21.1988 10.1892 21.1024 10.0713 21.1024ZM22.0097 22.4818L19.5106 19.9827C20.1079 19.1925 20.4642 18.2068 20.4642 17.1381C20.4642 14.5345 18.3535 12.4238 15.7499 12.4238C13.1463 12.4238 11.0356 14.5345 11.0356 17.1381C11.0356 19.7417 13.1463 21.8524 15.7499 21.8524C16.7088 21.8524 17.5981 21.5658 18.3428 21.0756L20.8794 23.6122C20.9222 23.655 20.9758 23.6738 21.0294 23.6738C21.0829 23.6738 21.1392 23.6524 21.1794 23.6122L22.0097 22.7818C22.0295 22.7622 22.0452 22.7388 22.0559 22.7131C22.0666 22.6873 22.0721 22.6597 22.0721 22.6318C22.0721 22.604 22.0666 22.5764 22.0559 22.5506C22.0452 22.5249 22.0295 22.5015 22.0097 22.4818ZM15.7499 20.1381C14.0919 20.1381 12.7499 18.7961 12.7499 17.1381C12.7499 15.48 14.0919 14.1381 15.7499 14.1381C17.4079 14.1381 18.7499 15.48 18.7499 17.1381C18.7499 18.7961 17.4079 20.1381 15.7499 20.1381Z" fill="#8C8C8C"/>
</svg>
