<svg width="24" height="24" viewBox="0 0 24 24" fill="none" xmlns="http://www.w3.org/2000/svg">
<g clip-path="url(#clip0)">
<path d="M4.06154 17.1232V14.6617C4.06154 14.5386 3.93846 14.4155 3.81538 14.4155H2.70769C2.58462 14.4155 2.46154 14.5386 2.46154 14.6617V15.7694H0V17.3694H3.81538C3.93846 17.3694 4.06154 17.2463 4.06154 17.1232Z" fill="#1890FF"/>
<path d="M7.13845 14.9078C7.38461 14.9078 7.75384 14.7847 7.99999 14.5386C8.24615 14.2924 8.36922 14.0463 8.36922 13.677C8.36922 13.4309 8.24615 13.0616 7.99999 12.8155C7.75384 12.6924 7.50768 12.5693 7.13845 12.5693C6.8923 12.5693 6.52307 12.6924 6.27692 12.9386C6.15384 13.1847 6.03076 13.4309 6.03076 13.8001C6.03076 14.0463 6.15384 14.4155 6.39999 14.6616C6.52307 14.7847 6.8923 14.9078 7.13845 14.9078Z" fill="#1890FF"/>
<path d="M12.9231 9.12308V9L12.1846 7.76923L12.0615 7.64615H11.9385L10.4615 8.50769L8.12308 2.23077C8 1.86154 7.87692 1.61538 7.50769 1.36923C7.13846 1.12308 6.76923 1 6.4 1H0V3.09231H6.27692L8.49231 9.12308H0V10.7231H8.98462L9.47692 11.9538V18.8462H0V20.9385H7.87692L8.12308 21.9231C8.24615 22.2923 8.49231 22.5385 8.86154 22.5385H10.8308C11.2 22.5385 11.5692 22.1692 11.5692 21.6769V11.7077C11.5692 11.5846 11.5692 11.4615 11.5692 11.4615L11.0769 10.2308L12.8 9.24615L12.9231 9.12308Z" fill="#1890FF"/>
<path d="M19.0769 13.6767C16.3693 13.6767 14.1539 11.4613 14.1539 8.75364C14.1539 6.04595 16.3693 3.83057 19.0769 3.83057C21.7846 3.83057 24 6.04595 24 8.75364C24 11.4613 21.7846 13.6767 19.0769 13.6767ZM19.0769 5.43057C17.2308 5.43057 15.8769 6.90749 15.8769 8.63057C15.8769 10.3536 17.3539 11.8306 19.0769 11.8306C20.8 11.8306 22.2769 10.3536 22.2769 8.63057C22.2769 6.90749 20.9231 5.43057 19.0769 5.43057Z" fill="#1890FF"/>
<path d="M19.6923 13.0615H18.4615V21.6769H19.6923V13.0615Z" fill="#1890FF"/>
<path d="M21.1692 22.5385H17.1077C16.8615 22.5385 16.7385 22.3847 16.7385 22.077V21.1539C16.7385 20.8462 16.8615 20.6924 17.1077 20.6924H21.1692C21.4154 20.6924 21.5385 20.8462 21.5385 21.1539V22.077C21.5385 22.2308 21.4154 22.5385 21.1692 22.5385Z" fill="#1890FF"/>
</g>
<defs>
<clipPath id="clip0">
<rect width="24" height="21.7846" fill="white" transform="translate(0 1)"/>
</clipPath>
</defs>
</svg>
